<svg width="101" height="100" viewBox="0 0 101 100" fill="none" xmlns="http://www.w3.org/2000/svg">
  <g clip-path="url(#clip0_46_393)">
    <path d="M49.7709 51.8709C47.6917 48.5188 46.1834 45.7396 44.0938 40.5063C40.5604 31.6667 65.5834 23.6792 55.4375 8.3313C59.8354 18.9334 39.6521 25.4875 37.7771 34.3167C36.0625 42.4375 49.7604 51.8709 49.7709 51.8709Z" fill="#F44336"/>
    <path d="M50.2459 35.9792C49.8459 41.2209 54.8896 44.0146 55.0354 47.8438C55.1521 50.9605 52.0209 53.5584 52.0209 53.5584C52.0209 53.5584 57.7042 52.4417 59.4771 47.6875C61.4459 42.4084 55.6563 38.7938 56.2521 34.5667C56.8084 30.5292 68.8167 23.0188 68.8167 23.0188C68.8167 23.0188 51.1479 24.1896 50.2459 35.9792Z" fill="#F44336"/>
    <path d="M67.3417 52.1979C70.9958 51.377 74.0771 53.7041 74.0771 56.3854C74.0771 62.4291 65.7 68.1416 65.7 68.1416C65.7 68.1416 78.6688 66.5958 78.6688 56.6728C78.6688 50.1103 72.3 48.4708 67.3417 52.1979ZM61.1854 57.0729C61.1854 57.0729 65.2292 54.1916 66.3063 53.1104C56.3833 55.2166 33.7271 55.4999 33.7271 53.6708C33.7271 51.9853 41.0333 50.2583 41.0333 50.2583C41.0333 50.2583 24.8396 50.0249 24.8396 54.802C24.8396 59.7812 46.0375 60.1374 61.1854 57.0729Z" fill="#1565C0"/>
    <path d="M58.6979 61.6061C49.3042 64.729 32.0021 63.7311 37.1271 59.5374C34.6313 59.5374 30.9313 61.5436 30.9313 63.4728C30.9313 67.3415 49.6438 70.329 63.4938 64.6644L58.6979 61.6061Z" fill="#1565C0"/>
    <path d="M39.4292 68.2061C36.0208 68.2061 33.8146 70.4019 33.8146 72.0019C33.8146 76.9831 54.1479 77.4852 62.2042 72.429L57.0833 69.029C51.0646 71.6748 35.9458 72.0394 39.4292 68.2061Z" fill="#1565C0"/>
    <path d="M76.0854 76.3167C76.0854 74.3667 73.8875 73.448 73.1 73.0084C77.7417 84.2021 26.6062 83.3334 26.6062 76.725C26.6062 75.223 30.3708 73.7521 33.85 74.448L30.8917 72.7C23.9583 71.6125 19.25 74.6605 19.25 77.1188C19.25 88.5834 76.0854 88.0313 76.0854 76.3167Z" fill="#1565C0"/>
    <path d="M81.75 80.4248C73.1125 88.9561 51.2104 92.0644 29.1854 86.7936C51.2104 96.1748 81.6458 90.8915 81.75 80.4248Z" fill="#1565C0"/>
  </g>
  <defs>
    <clipPath id="clip0_46_393">
      <rect x="0.5" width="100" height="100" rx="5" fill="white"/>
    </clipPath>
  </defs>
</svg>
