<svg width="100" height="100" viewBox="0 0 100 100" fill="none" xmlns="http://www.w3.org/2000/svg">
  <g clip-path="url(#clip0_46_389)">
    <path d="M50.0979 10.4167C46.8583 10.4271 44.6125 10.7125 41.8979 11.1812C33.8812 12.5771 32.4208 15.5083 32.4208 20.9104V29.1667H51.1708V33.3333H31.7083H22.6458C17.1542 33.3333 12.3479 35.9208 10.825 42.1229C9.10417 49.2417 9.02708 53.7 10.825 61.1333C12.1896 66.6771 15.1958 70.8333 20.6896 70.8333H28.2562V60.2C28.2562 54.0208 33.8521 47.9167 40.2646 47.9167H55.3396C60.5958 47.9167 65.7562 44.0375 65.7562 38.7979V20.9104C65.7562 15.8292 62.0917 12.0292 56.9687 11.1771C57.0958 11.1646 53.3104 10.4042 50.0979 10.4167ZM39.7146 18.75C41.425 18.75 42.8396 20.1604 42.8396 21.8792C42.8396 23.6146 41.425 25 39.7146 25C37.9708 25 36.5896 23.6167 36.5896 21.8792C36.5896 20.1667 37.9708 18.75 39.7146 18.75Z" fill="#0277BD"/>
    <path d="M48.0792 89.5834C51.3188 89.573 53.5646 89.2876 56.2792 88.8188C64.2958 87.423 65.7563 84.4917 65.7563 79.0897V70.8334H47.0063V66.6667H66.4708H75.5333C81.025 66.6667 85.8313 64.0792 87.3542 57.8772C89.075 50.7584 89.1521 46.3001 87.3542 38.8667C85.9875 33.323 82.9813 29.1667 77.4875 29.1667H69.9208V39.8001C69.9208 45.9792 64.325 52.0834 57.9125 52.0834H42.8375C37.5813 52.0834 32.4208 55.9626 32.4208 61.2022V79.0897C32.4208 84.1709 36.0854 87.9709 41.2083 88.823C41.0813 88.8355 44.8667 89.5959 48.0792 89.5834ZM58.4646 81.2501C56.7542 81.2501 55.3396 79.8397 55.3396 78.1209C55.3396 76.3855 56.7542 75.0001 58.4646 75.0001C60.2083 75.0001 61.5896 76.3834 61.5896 78.1209C61.5896 79.8334 60.2063 81.2501 58.4646 81.2501Z" fill="#FFC107"/>
  </g>
  <defs>
    <clipPath id="clip0_46_389">
      <rect width="100" height="100" rx="5" fill="white"/>
    </clipPath>
  </defs>
</svg>
