<svg width="20" height="20" viewBox="0 0 20 20" fill="none" xmlns="http://www.w3.org/2000/svg">
  <g clip-path="url(#clip0_94_63)">
    <path clip-rule="evenodd"
          d="M4.16683 3.33333C4.16683 1.95262 5.28612 0.833332 6.66683 0.833332H13.3334C14.7142 0.833332 15.8335 1.95262 15.8335 3.33333H16.6668C18.0476 3.33333 19.1668 4.45262 19.1668 5.83333V6.37161C19.1668 7.39387 18.5444 8.31314 17.5953 8.69283L15.026 9.7205C14.6639 10.3867 14.1318 11.0596 13.353 11.5788C12.676 12.0301 11.8438 12.3443 10.8335 12.4556V14.1667H12.5002C13.8809 14.1667 15.0002 15.2859 15.0002 16.6667V17.5C15.0002 18.4205 14.254 19.1667 13.3335 19.1667H6.66683C5.74635 19.1667 5.00016 18.4205 5.00016 17.5V16.6667C5.00016 15.2859 6.11945 14.1667 7.50016 14.1667H9.16683V12.4556C8.15647 12.3444 7.32425 12.0301 6.64725 11.5787C5.8684 11.0596 5.33629 10.3867 4.97425 9.7205L2.40502 8.69283C1.45587 8.31314 0.833496 7.39387 0.833496 6.37161V5.83333C0.833496 4.45262 1.95279 3.33333 3.3335 3.33333H4.16683ZM4.16683 5H3.3335C2.87326 5 2.50016 5.3731 2.50016 5.83333V6.37161C2.50016 6.71236 2.70762 7.01879 3.024 7.14534L4.26605 7.64216C4.21011 7.3219 4.16735 6.99345 4.16683 6.66753V5ZM15.8335 6.66667V5H16.6668C17.1271 5 17.5002 5.3731 17.5002 5.83333V6.37161C17.5002 6.71236 17.2927 7.01879 16.9763 7.14534L15.7342 7.64218C15.7892 7.31967 15.8335 6.99405 15.8335 6.66667ZM6.66683 2.5C6.2066 2.5 5.8335 2.8731 5.8335 3.33333V6.66422V6.66527C5.8335 6.66663 5.8335 6.66732 5.8335 6.66527C5.83773 6.88134 5.8648 7.09803 5.90028 7.31092C5.9693 7.7251 6.1058 8.26459 6.3705 8.794C6.63356 9.32016 7.01508 9.82091 7.57175 10.1921C8.12321 10.5597 8.89591 10.8333 10.0002 10.8333C11.1043 10.8333 11.877 10.5597 12.4285 10.192C12.9852 9.82091 13.3667 9.32016 13.6297 8.794C13.8945 8.26458 14.031 7.72509 14.1 7.31091C14.1355 7.09779 14.161 6.88206 14.1668 6.66591V3.33333C14.1668 2.8731 13.7937 2.5 13.3334 2.5H6.66683ZM7.50016 15.8333C7.03993 15.8333 6.66683 16.2064 6.66683 16.6667V17.5H13.3335V16.6667C13.3335 16.2064 12.9604 15.8333 12.5002 15.8333H7.50016Z"
          fill="#F38546"/>
  </g>
</svg>
