<svg width="101" height="100" viewBox="0 0 101 100" fill="none" xmlns="http://www.w3.org/2000/svg">
  <g clip-path="url(#clip0_46_437)">
    <path d="M80.9942 35.22C81.0179 34.1451 80.7589 33.0829 80.2432 32.1395C79.7088 31.2276 78.9383 30.4768 78.013 29.9659C69.8098 25.2296 61.6038 20.4998 53.3949 15.7766C51.1845 14.4985 49.0421 14.5439 46.8458 15.8418C43.5811 17.7604 27.2324 27.1377 22.3609 29.9631C20.3545 31.125 19.3797 32.9047 19.3797 35.2171V63.7828C19.359 64.8349 19.6077 65.8749 20.1023 66.8037C20.637 67.7434 21.4218 68.5164 22.3694 69.0368C27.2409 71.8707 43.5925 81.2368 46.8571 83.1638C49.0534 84.4617 51.1958 84.5071 53.4091 83.229C61.6104 78.4907 69.8164 73.759 78.0271 69.034C78.9748 68.5136 79.7596 67.7406 80.2942 66.8009C80.7888 65.872 81.0376 64.8321 81.0169 63.78V35.22H80.9942Z" fill="#004482"/>
    <path d="M80.9999 63.7829C81.0212 64.8351 80.7724 65.8752 80.2772 66.8038C80.1557 67.025 80.0183 67.2372 79.8663 67.4386L50.187 49.5001L78.013 29.9661C78.9374 30.4771 79.7069 31.228 80.2404 32.1397C80.7583 33.0823 81.0183 34.1449 80.9942 35.2201C80.9999 44.742 80.9999 63.7829 80.9999 63.7829Z" fill="#00599C"/>
    <path d="M80.2404 32.1396L20.0938 66.8038C19.6014 65.8753 19.3546 64.8364 19.3769 63.7857V35.2172C19.3769 32.9047 20.3545 31.1251 22.3581 29.9632C27.2324 27.1378 43.5811 17.7604 46.8486 15.8362C49.0392 14.5383 51.1845 14.4929 53.3949 15.771C61.5962 20.5093 69.8022 25.2409 78.013 29.966C78.9374 30.477 79.7069 31.2279 80.2404 32.1396Z" fill="#659AD2"/>
    <path d="M51.3772 61.0397C49.3519 61.0426 47.363 60.5015 45.6183 59.4731C43.8735 58.4447 42.4369 56.9667 41.4585 55.1934C41.3584 55.0158 41.264 54.8344 41.1752 54.6493C39.968 52.1562 39.717 49.3069 40.4697 46.6412C41.2223 43.9754 42.9264 41.6782 45.2592 40.1845C47.592 38.6909 50.3916 38.1046 53.1277 38.5366C55.8638 38.9686 58.3465 40.389 60.1056 42.5287C60.2558 42.7101 60.389 42.9 60.5392 43.0955C60.6072 43.189 60.6752 43.2826 60.7375 43.3789L70.676 37.6544C70.4342 37.2653 70.181 36.8874 69.9165 36.5209C69.7776 36.3253 69.6331 36.1383 69.4971 35.9541C66.0427 31.4666 61.0322 28.4364 55.4537 27.4611C49.8752 26.4859 44.1338 27.6365 39.3619 30.6859C34.5899 33.7354 31.1339 38.4623 29.6754 43.9343C28.217 49.4064 28.862 55.2263 31.4832 60.2462C31.5796 60.4276 31.6788 60.6062 31.7666 60.7847C33.6917 64.1813 36.4623 67.0224 39.8094 69.0324C43.1564 71.0424 46.9663 72.1529 50.8691 72.2561C54.7719 72.3594 58.6352 71.4518 62.0838 69.6216C65.5324 67.7914 68.4493 65.1006 70.5513 61.8106L60.8339 55.9359C59.8051 57.5047 58.4019 58.7927 56.751 59.6837C55.1 60.5747 53.2532 61.0407 51.3772 61.0397Z" fill="white"/>
  </g>
  <defs>
    <clipPath id="clip0_46_437">
      <rect width="63.39" height="75" fill="white" transform="translate(18.5 12)"/>
    </clipPath>
  </defs>
</svg>
