<svg width="101" height="100" viewBox="0 0 101 100" fill="none" xmlns="http://www.w3.org/2000/svg">
  <g clip-path="url(#clip0_46_428)">
    <path
      d="M87.9876 48.5807L84.8391 46.6316C84.8125 46.3256 84.7826 46.0199 84.7494 45.7146L87.4553 43.1906C87.5906 43.0649 87.6914 42.9066 87.7481 42.7309C87.8048 42.5551 87.8154 42.3677 87.779 42.1866C87.7435 42.0055 87.662 41.8364 87.5425 41.6957C87.423 41.5549 87.2694 41.4472 87.0964 41.3827L83.6373 40.0893C83.5504 39.7906 83.4601 39.4929 83.3663 39.1963L85.524 36.1995C85.6321 36.0497 85.7001 35.8748 85.7215 35.6913C85.7429 35.5078 85.7171 35.3219 85.6464 35.1512C85.5758 34.9805 85.4626 34.8308 85.3178 34.7161C85.173 34.6015 85.0012 34.5258 84.8188 34.4962L81.1714 33.9029C81.0296 33.6264 80.8819 33.3539 80.7331 33.0838L82.2656 29.7196C82.3428 29.5518 82.3755 29.3669 82.3608 29.1828C82.346 28.9986 82.2842 28.8213 82.1813 28.6679C82.0791 28.514 81.9392 28.3889 81.7748 28.3047C81.6104 28.2204 81.4271 28.1798 81.2426 28.1868L77.5406 28.3157C77.3494 28.0763 77.1545 27.8398 76.9559 27.6065L77.8066 24.0006C77.8492 23.8208 77.845 23.633 77.7944 23.4553C77.7439 23.2775 77.6486 23.1157 77.5178 22.9852C77.3873 22.8545 77.2255 22.7594 77.0479 22.7088C76.8703 22.6583 76.6827 22.654 76.5029 22.6963L72.8979 23.5462C72.6639 23.3478 72.427 23.1529 72.1872 22.9614L72.3167 19.2598C72.3236 19.0752 72.2831 18.892 72.199 18.7276C72.1149 18.5632 71.99 18.4232 71.8362 18.3208C71.6828 18.2181 71.5055 18.1563 71.3214 18.1414C71.1373 18.1266 70.9525 18.1591 70.7845 18.2359L67.4212 19.7693C67.1499 19.6195 66.8768 19.473 66.6021 19.3298L66.0073 15.6818C65.9776 15.4996 65.9018 15.3281 65.7871 15.1834C65.6725 15.0387 65.5228 14.9257 65.3523 14.8551C65.1818 14.7845 64.996 14.7586 64.8127 14.7798C64.6293 14.8011 64.4544 14.8688 64.3046 14.9766L61.3058 17.1343C61.0107 17.0405 60.714 16.95 60.4146 16.8642L59.1211 13.4045C59.0568 13.2312 58.949 13.0773 58.8082 12.9574C58.6674 12.8376 58.4983 12.7559 58.3169 12.7201C58.1359 12.6845 57.9489 12.6956 57.7734 12.7523C57.5979 12.809 57.4397 12.9094 57.3138 13.0442L54.7898 15.7521C54.4846 15.7179 54.1789 15.688 53.8729 15.6624L51.9237 12.513C51.8266 12.3561 51.691 12.2266 51.5298 12.1367C51.3685 12.0469 51.187 11.9998 51.0025 11.9998C50.8179 11.9998 50.6364 12.0469 50.4752 12.1367C50.314 12.2266 50.1784 12.3561 50.0812 12.513L48.1321 15.6624C47.8258 15.6879 47.5198 15.7178 47.2143 15.7521L44.6897 13.0442C44.5639 12.9089 44.4056 12.8081 44.2298 12.7514C44.054 12.6946 43.8667 12.6838 43.6855 12.7199C43.5044 12.756 43.3355 12.8379 43.1949 12.9577C43.0543 13.0775 42.9468 13.2314 42.8824 13.4045L41.5893 16.8642C41.2896 16.95 40.9931 17.0411 40.6972 17.1343L37.6989 14.9766C37.5492 14.8683 37.3741 14.8003 37.1905 14.779C37.0069 14.7577 36.821 14.7839 36.6504 14.855C36.48 14.9258 36.3304 15.0388 36.2158 15.1835C36.1013 15.3282 36.0255 15.4997 35.9956 15.6818L35.4009 19.3298C35.1255 19.4725 34.8533 19.6193 34.5817 19.7693L31.2182 18.2356C31.0503 18.1587 30.8655 18.1262 30.6815 18.1411C30.4974 18.1561 30.3203 18.2179 30.167 18.3208C30.0132 18.4231 29.8881 18.5631 29.8039 18.7275C29.7197 18.8919 29.6791 19.0752 29.6859 19.2598L29.8148 22.9614C29.5753 23.1532 29.3384 23.3481 29.1041 23.5462L25.4991 22.6966C25.3193 22.6545 25.1317 22.6588 24.954 22.7093C24.7764 22.7598 24.6145 22.8548 24.4837 22.9852C24.3528 23.1157 24.2576 23.2775 24.207 23.4553C24.1565 23.633 24.1523 23.8208 24.1948 24.0006L25.0441 27.6065C24.847 27.84 24.6521 28.0764 24.4608 28.3157L20.7589 28.1868C20.5745 28.181 20.3917 28.2221 20.2275 28.3062C20.0634 28.3902 19.9232 28.5146 19.8202 28.6676C19.7175 28.8211 19.6557 28.9983 19.6408 29.1824C19.6259 29.3665 19.6583 29.5513 19.735 29.7194L21.2684 33.0838C21.1192 33.3539 20.9719 33.6264 20.8289 33.9029L17.1817 34.4962C16.9995 34.5259 16.8278 34.6017 16.6831 34.7164C16.5383 34.8311 16.4253 34.9808 16.3546 35.1514C16.284 35.322 16.2581 35.5079 16.2795 35.6913C16.3008 35.8747 16.3686 36.0497 16.4766 36.1995L18.6343 39.1966C18.5405 39.4925 18.4494 39.7896 18.3633 40.0893L14.9039 41.3827C14.7311 41.4476 14.5778 41.5555 14.4584 41.6963C14.339 41.837 14.2574 42.0058 14.2215 42.1868C14.1856 42.3679 14.1964 42.5551 14.253 42.7307C14.3096 42.9064 14.4101 43.0647 14.545 43.1906L17.2512 45.7143C17.2175 46.019 17.1876 46.3257 17.1618 46.6316L14.0127 48.5807C13.8558 48.6778 13.7263 48.8135 13.6366 48.9747C13.5468 49.136 13.4998 49.3175 13.5 49.5021C13.5 49.8782 13.6942 50.2266 14.013 50.4229L17.1618 52.372C17.1876 52.6787 17.2175 52.9849 17.2512 53.2893L14.5447 55.8138C14.4096 55.9396 14.3089 56.0979 14.2522 56.2735C14.1954 56.4492 14.1845 56.6365 14.2205 56.8176C14.2565 56.9987 14.3382 57.1675 14.4578 57.3082C14.5774 57.4488 14.731 57.5565 14.9039 57.6211L18.3633 58.9146C18.4494 59.214 18.5405 59.5113 18.6343 59.8072L16.4766 62.8046C16.3684 62.9544 16.3005 63.1294 16.2791 63.3129C16.2577 63.4964 16.2836 63.6824 16.3544 63.853C16.4251 64.0237 16.5384 64.1734 16.6834 64.2879C16.8283 64.4025 17.0002 64.478 17.1826 64.5073L20.8292 65.1006C20.9719 65.3772 21.1181 65.6496 21.2687 65.9209L19.735 69.2842C19.6582 69.4522 19.6257 69.6371 19.6406 69.8212C19.6555 70.0053 19.7174 70.1825 19.8202 70.336C19.9225 70.4897 20.0625 70.6146 20.2268 70.6988C20.3912 70.783 20.5744 70.8236 20.7589 70.8167L24.4591 70.6872C24.6521 70.9278 24.8464 71.1636 25.0441 71.398L24.1948 75.0044C24.1523 75.1839 24.1565 75.3714 24.2071 75.5488C24.2577 75.7262 24.3529 75.8877 24.4837 76.0178C24.6141 76.1487 24.776 76.244 24.9538 76.2944C25.1316 76.3448 25.3194 76.3488 25.4991 76.3058L29.1041 75.4568C29.3385 75.656 29.5758 75.8493 29.8151 76.0398L29.6862 79.7426C29.6796 79.9271 29.7202 80.1102 29.8043 80.2746C29.8884 80.4389 30.0132 80.5791 30.1667 80.6816C30.3203 80.7841 30.4975 80.8457 30.6815 80.8604C30.8655 80.8751 31.0503 80.8425 31.2182 80.7656L34.5817 79.2331C34.8526 79.3836 35.1256 79.53 35.4009 79.6723L35.9956 83.3183C36.025 83.5007 36.1006 83.6725 36.2152 83.8174C36.3298 83.9623 36.4797 84.0754 36.6504 84.1459C36.821 84.2166 37.0069 84.2426 37.1903 84.2214C37.3738 84.2002 37.5489 84.1326 37.6989 84.0249L40.6957 81.8657C40.9916 81.9595 41.289 82.0512 41.5884 82.1373L42.8818 85.5955C42.9462 85.7686 43.054 85.9223 43.1947 86.0418C43.3355 86.1614 43.5045 86.2429 43.6857 86.2784C43.8667 86.315 44.0541 86.3043 44.2298 86.2476C44.4055 86.1908 44.5637 86.0899 44.6892 85.9544L47.2137 83.248C47.5184 83.2831 47.8248 83.3124 48.1315 83.3397L50.0807 86.4885C50.1779 86.6452 50.3135 86.7745 50.4746 86.8642C50.6357 86.9539 50.8171 87.0011 51.0015 87.0012C51.186 87.0011 51.3674 86.954 51.5286 86.8643C51.6899 86.7746 51.8255 86.6453 51.9229 86.4885L53.872 83.3397C54.1787 83.3124 54.4849 83.2831 54.7893 83.248L57.3132 85.9544C57.4387 86.0898 57.5968 86.1907 57.7724 86.2474C57.9481 86.3041 58.1354 86.3148 58.3163 86.2784C58.4975 86.2427 58.6665 86.1612 58.8072 86.0417C58.9479 85.9221 59.0557 85.7685 59.1202 85.5955L60.4137 82.1373C60.7131 82.0512 61.0107 81.9595 61.3066 81.8657L64.304 84.0249C64.4539 84.1327 64.6289 84.2004 64.8124 84.2216C64.9958 84.2428 65.1817 84.2167 65.3522 84.146C65.5228 84.0752 65.6724 83.962 65.787 83.8171C65.9015 83.6723 65.9772 83.5006 66.0067 83.3183L66.6015 79.6723C66.8766 79.5296 67.1487 79.3814 67.4203 79.2328L70.7839 80.7656C70.9518 80.8427 71.1366 80.8755 71.3207 80.8609C71.5049 80.8463 71.6822 80.7848 71.8358 80.6822C71.9895 80.5796 72.1143 80.4394 72.1983 80.275C72.2824 80.1105 72.323 79.9272 72.3161 79.7426L72.1872 76.0401C72.4269 75.8494 72.6636 75.6549 72.8971 75.4568L76.5023 76.3058C76.8686 76.3919 77.2523 76.2853 77.5169 76.0178C77.6477 75.8877 77.7429 75.7262 77.7935 75.5488C77.8441 75.3714 77.8483 75.1839 77.8058 75.0044L76.9567 71.398C77.1545 71.1636 77.3493 70.9278 77.5397 70.6872L81.2417 70.8167C81.4262 70.8237 81.6094 70.7832 81.7738 70.699C81.9381 70.6149 82.0781 70.49 82.1804 70.3363C82.2834 70.1828 82.3453 70.0054 82.3601 69.8211C82.3749 69.6369 82.3422 69.4519 82.265 69.2839L80.7322 65.9212C80.8819 65.6496 81.029 65.3772 81.1708 65.1009L84.8183 64.5073C85.0006 64.4781 85.1724 64.4025 85.3172 64.2878C85.4619 64.173 85.5748 64.0231 85.645 63.8523C85.7157 63.6818 85.7417 63.496 85.7204 63.3126C85.6991 63.1293 85.6313 62.9544 85.5234 62.8046L83.3657 59.8075C83.4589 59.5113 83.55 59.214 83.6367 58.9146L87.0955 57.6211C87.2686 57.5567 87.4224 57.449 87.5419 57.3081C87.6615 57.1673 87.7429 56.9982 87.7784 56.8169C87.8149 56.636 87.8042 56.4487 87.7475 56.273C87.6907 56.0974 87.5898 55.9392 87.4544 55.8138L84.7488 53.2893C84.7816 52.9846 84.8118 52.6781 84.8382 52.3723L87.987 50.4229C88.144 50.3259 88.2735 50.1904 88.3633 50.0292C88.4531 49.868 88.5002 49.6866 88.5 49.5021C88.5 49.1268 88.3066 48.7779 87.9876 48.5807ZM66.9138 74.7006C65.7114 74.4413 64.9468 73.2563 65.2049 72.0501C65.4621 70.8454 66.6463 70.0787 67.8483 70.338C69.0507 70.5955 69.8165 71.7826 69.5587 72.9864C69.3009 74.1905 68.1155 74.9581 66.9138 74.7006ZM65.8438 67.4646C65.583 67.4086 65.3136 67.4047 65.0511 67.4529C64.7887 67.5011 64.5384 67.6007 64.3144 67.7457C64.0905 67.8908 63.8973 68.0786 63.746 68.2984C63.5948 68.5182 63.4883 68.7657 63.4327 69.0267L62.3147 74.2436C58.865 75.8092 55.0345 76.679 51 76.679C46.8732 76.679 42.9592 75.7661 39.4482 74.1337L38.3309 68.9171C38.0959 67.8194 37.0166 67.12 35.9203 67.3556L31.3148 68.3446C30.4589 67.4637 29.6634 66.526 28.9336 65.538H51.3428C51.5962 65.538 51.7652 65.492 51.7652 65.2612V57.3343C51.7652 57.1037 51.5962 57.0577 51.3425 57.0577H44.7891V52.0333H51.8774C52.5243 52.0333 55.3371 52.2179 56.2362 55.8132C56.5181 56.9189 57.1362 60.5154 57.5593 61.6667C57.9806 62.9581 59.6959 65.5377 61.524 65.5377H72.6905C72.8174 65.5377 72.9527 65.5234 73.0954 65.4976C72.3206 66.5498 71.4719 67.5455 70.5557 68.4771L65.8438 67.4646ZM34.8507 74.5916C33.648 74.8512 32.4642 74.0845 32.2055 72.8798C31.9482 71.6731 32.7129 70.4886 33.9152 70.2293C35.1179 69.9721 36.3023 70.7388 36.5602 71.9432C36.8174 73.1473 36.0524 74.3338 34.8507 74.5916ZM26.3496 40.1209C26.8485 41.2465 26.3408 42.5657 25.2167 43.0638C24.0926 43.5633 22.7769 43.055 22.2782 41.9285C21.7793 40.8021 22.2867 39.4852 23.4111 38.9857C23.6786 38.867 23.9668 38.8023 24.2592 38.7952C24.5517 38.788 24.8427 38.8386 25.1156 38.944C25.3886 39.0494 25.638 39.2076 25.8497 39.4095C26.0615 39.6114 26.2313 39.8533 26.3496 40.1209ZM23.7369 46.3143L28.5346 44.1823C29.0271 43.9632 29.4125 43.5576 29.6061 43.0545C29.7996 42.5514 29.7856 41.9921 29.567 41.4993L28.5791 39.2652H32.465V56.7812H24.6249C23.9299 54.3346 23.5783 51.8034 23.5802 49.2601C23.5802 48.2646 23.6338 47.2811 23.7369 46.3143ZM44.7902 44.613V39.45H54.0439C54.5221 39.45 57.4189 40.0026 57.4189 42.1688C57.4189 43.9673 55.1971 44.6121 53.3698 44.6121H44.7902V44.613ZM78.4207 49.2601C78.4207 49.945 78.3955 50.623 78.3454 51.2956H75.532C75.2505 51.2956 75.1371 51.4808 75.1371 51.7565V53.0485C75.1371 56.0895 73.4224 56.751 71.9197 56.9195C70.4889 57.0806 68.9021 56.3203 68.7067 55.4446C67.8624 50.6968 66.4559 49.6828 64.2346 47.9306C66.9914 46.1801 69.8596 43.5976 69.8596 40.1405C69.8596 36.4081 67.3008 34.057 65.5564 32.9042C63.1096 31.2911 60.4002 30.9677 59.6692 30.9677H30.5739C34.5193 26.5644 39.8666 23.4451 45.9144 22.3102L49.3438 25.9078C49.5278 26.1009 49.7481 26.2559 49.9921 26.3637C50.236 26.4716 50.4989 26.5303 50.7655 26.5364C51.0322 26.5426 51.2974 26.4961 51.5461 26.3996C51.7948 26.3031 52.0219 26.1585 52.2146 25.974L56.052 22.3037C64.0925 23.8008 70.9002 28.8059 74.8233 35.6728L72.1963 41.6063C71.7428 42.6331 72.2057 43.834 73.2296 44.289L78.2874 46.5355C78.3747 47.4334 78.4207 48.3404 78.4207 49.2601ZM49.3453 19.2495C50.2339 18.3985 51.6434 18.4321 52.4941 19.3219C53.3432 20.2143 53.3109 21.6252 52.4203 22.4757C51.5317 23.3271 50.1223 23.294 49.2715 22.4025C48.8638 21.9742 48.6427 21.4018 48.6565 20.8107C48.6703 20.2197 48.9181 19.6582 49.3453 19.2495ZM75.4146 40.229C75.5328 39.9615 75.7026 39.7198 75.9143 39.5179C76.1259 39.3161 76.3754 39.1579 76.6482 39.0526C76.9211 38.9472 77.2121 38.8967 77.5045 38.9039C77.797 38.9111 78.0851 38.9759 78.3524 39.0946C79.4769 39.5933 79.9843 40.9119 79.4854 42.0375C79.3672 42.3052 79.1974 42.547 78.9857 42.749C78.774 42.951 78.5245 43.1092 78.2516 43.2146C77.9786 43.3201 77.6876 43.3707 77.3951 43.3635C77.1025 43.3563 76.8143 43.2915 76.5469 43.1728C75.4239 42.6738 74.9165 41.3564 75.4146 40.229Z"
      fill="white"/>
  </g>
  <defs>
    <clipPath id="clip0_46_428">
      <rect width="75" height="75" fill="white" transform="translate(13.5 12)"/>
    </clipPath>
  </defs>
</svg>
