<svg width="116" height="63" viewBox="0 0 116 63" fill="none" xmlns="http://www.w3.org/2000/svg">
<rect width="116" height="63" rx="10" fill="#FFA31A"/>
<path d="M22.16 46.4C20.2933 46.4 18.6533 46.0533 17.24 45.36C15.8533 44.64 14.7733 43.64 14 42.36C13.2533 41.0533 12.88 39.52 12.88 37.76V25.04C12.88 23.2533 13.2533 21.72 14 20.44C14.7733 19.16 15.8533 18.1733 17.24 17.48C18.6533 16.76 20.2933 16.4 22.16 16.4C24.0533 16.4 25.68 16.76 27.04 17.48C28.4267 18.1733 29.5067 19.16 30.28 20.44C31.0533 21.72 31.44 23.2533 31.44 25.04H26.4C26.4 23.6533 26.0267 22.6 25.28 21.88C24.56 21.16 23.52 20.8 22.16 20.8C20.8 20.8 19.7467 21.16 19 21.88C18.2533 22.6 17.88 23.64 17.88 25V37.76C17.88 39.12 18.2533 40.1733 19 40.92C19.7467 41.64 20.8 42 22.16 42C23.52 42 24.56 41.64 25.28 40.92C26.0267 40.1733 26.4 39.12 26.4 37.76H31.44C31.44 39.4933 31.0533 41.0133 30.28 42.32C29.5067 43.6267 28.4267 44.64 27.04 45.36C25.68 46.0533 24.0533 46.4 22.16 46.4ZM45.9844 46.36C44.1177 46.36 42.491 46.0133 41.1044 45.32C39.7444 44.6 38.6777 43.6 37.9044 42.32C37.1577 41.0133 36.7844 39.48 36.7844 37.72V32.28C36.7844 30.52 37.1577 29 37.9044 27.72C38.6777 26.4133 39.7444 25.4133 41.1044 24.72C42.491 24 44.1177 23.64 45.9844 23.64C47.8777 23.64 49.5044 24 50.8644 24.72C52.2244 25.4133 53.2777 26.4133 54.0244 27.72C54.7977 29 55.1844 30.5067 55.1844 32.24V37.72C55.1844 39.48 54.7977 41.0133 54.0244 42.32C53.2777 43.6 52.2244 44.6 50.8644 45.32C49.5044 46.0133 47.8777 46.36 45.9844 46.36ZM45.9844 42C47.3177 42 48.3444 41.64 49.0644 40.92C49.811 40.1733 50.1844 39.1067 50.1844 37.72V32.28C50.1844 30.8667 49.811 29.8 49.0644 29.08C48.3444 28.36 47.3177 28 45.9844 28C44.6777 28 43.651 28.36 42.9044 29.08C42.1577 29.8 41.7844 30.8667 41.7844 32.28V37.72C41.7844 39.1067 42.1577 40.1733 42.9044 40.92C43.651 41.64 44.6777 42 45.9844 42ZM68.0888 46.4C65.9021 46.4 64.1288 45.64 62.7688 44.12C61.4354 42.6 60.7688 40.56 60.7688 38V32.04C60.7688 29.4533 61.4354 27.4 62.7688 25.88C64.1021 24.36 65.8754 23.6 68.0888 23.6C69.9021 23.6 71.3421 24.12 72.4088 25.16C73.4754 26.1733 74.0088 27.5733 74.0088 29.36L72.8888 28.2H74.0488L73.8888 22.96V16.8H78.8888V46H74.0088V41.8H72.8888L74.0088 40.64C74.0088 42.4267 73.4754 43.84 72.4088 44.88C71.3421 45.8933 69.9021 46.4 68.0888 46.4ZM69.8488 42.08C71.1288 42.08 72.1154 41.7067 72.8088 40.96C73.5288 40.1867 73.8888 39.12 73.8888 37.76V32.24C73.8888 30.88 73.5288 29.8267 72.8088 29.08C72.1154 28.3067 71.1288 27.92 69.8488 27.92C68.5688 27.92 67.5688 28.2933 66.8488 29.04C66.1288 29.7867 65.7688 30.8533 65.7688 32.24V37.76C65.7688 39.1467 66.1288 40.2133 66.8488 40.96C67.5688 41.7067 68.5688 42.08 69.8488 42.08ZM93.9931 46.4C92.1265 46.4 90.4998 46.04 89.1131 45.32C87.7265 44.6 86.6465 43.6 85.8731 42.32C85.1265 41.0133 84.7531 39.4933 84.7531 37.76V32.24C84.7531 30.5067 85.1265 29 85.8731 27.72C86.6465 26.4133 87.7265 25.4 89.1131 24.68C90.4998 23.96 92.1265 23.6 93.9931 23.6C95.8331 23.6 97.4331 23.96 98.7931 24.68C100.18 25.4 101.246 26.4133 101.993 27.72C102.766 29 103.153 30.5067 103.153 32.24V36.2H89.5931V37.76C89.5931 39.3067 89.9665 40.48 90.7131 41.28C91.4598 42.0533 92.5665 42.44 94.0331 42.44C95.1531 42.44 96.0598 42.2533 96.7531 41.88C97.4465 41.48 97.8865 40.9067 98.0731 40.16H102.993C102.62 42.0533 101.606 43.5733 99.9531 44.72C98.3265 45.84 96.3398 46.4 93.9931 46.4ZM98.3131 33.4V32.2C98.3131 30.68 97.9531 29.52 97.2331 28.72C96.5131 27.8933 95.4331 27.48 93.9931 27.48C92.5531 27.48 91.4598 27.8933 90.7131 28.72C89.9665 29.5467 89.5931 30.72 89.5931 32.24V33.08L98.6731 33L98.3131 33.4Z" fill="#1B1B1B"/>
</svg>
