<svg width="216" height="63" viewBox="0 0 216 63" fill="none" xmlns="http://www.w3.org/2000/svg">
<g clip-path="url(#clip0_263_56)">
<rect width="116" height="63" rx="10" fill="#FFA31A"/>
<path d="M22 46.4C20.1333 46.4 18.5067 46.0533 17.12 45.36C15.76 44.64 14.7067 43.64 13.96 42.36C13.24 41.0533 12.88 39.52 12.88 37.76V25.04C12.88 23.28 13.24 21.76 13.96 20.48C14.7067 19.1733 15.76 18.1733 17.12 17.48C18.5067 16.76 20.1333 16.4 22 16.4C23.8933 16.4 25.52 16.76 26.88 17.48C28.24 18.1733 29.28 19.1733 30 20.48C30.7467 21.76 31.12 23.2667 31.12 25V37.76C31.12 39.52 30.7467 41.0533 30 42.36C29.28 43.64 28.24 44.64 26.88 45.36C25.52 46.0533 23.8933 46.4 22 46.4ZM22 42C23.36 42 24.3867 41.64 25.08 40.92C25.7733 40.1733 26.12 39.12 26.12 37.76V25.04C26.12 23.6533 25.7733 22.6 25.08 21.88C24.3867 21.16 23.36 20.8 22 20.8C20.64 20.8 19.6133 21.16 18.92 21.88C18.2267 22.6 17.88 23.6533 17.88 25.04V37.76C17.88 39.12 18.2267 40.1733 18.92 40.92C19.64 41.64 20.6667 42 22 42ZM37.0644 46V24H41.9444V28.2H43.3044L41.9444 29.36C41.9444 27.5467 42.4644 26.1333 43.5044 25.12C44.571 24.1067 46.0244 23.6 47.8644 23.6C50.0244 23.6 51.7444 24.32 53.0244 25.76C54.331 27.2 54.9844 29.1333 54.9844 31.56V46H49.9844V32.08C49.9844 30.7467 49.6377 29.72 48.9444 29C48.251 28.28 47.2777 27.92 46.0244 27.92C44.7977 27.92 43.8244 28.2933 43.1044 29.04C42.411 29.7867 42.0644 30.8533 42.0644 32.24V46H37.0644ZM73.3288 46C71.8888 46 70.6221 45.7067 69.5288 45.12C68.4621 44.5333 67.6221 43.7067 67.0088 42.64C66.3954 41.5467 66.0888 40.2933 66.0888 38.88V21.32H59.0488V16.8H71.0888V38.88C71.0888 39.68 71.3154 40.32 71.7688 40.8C72.2488 41.2533 72.8888 41.48 73.6888 41.48H80.3288V46H73.3288ZM88.5931 53.2L91.6731 44.8L83.4731 24H88.9531L93.0331 35.24C93.2465 35.8533 93.4598 36.6 93.6731 37.48C93.8865 38.3333 94.0465 39.04 94.1531 39.6C94.2865 39.04 94.4598 38.3333 94.6731 37.48C94.8865 36.6 95.0998 35.8533 95.3131 35.24L99.1531 24H104.433L93.8331 53.2H88.5931Z" fill="#1B1B1B"/>
<path d="M132.16 46.4C130.293 46.4 128.653 46.0533 127.24 45.36C125.853 44.64 124.773 43.64 124 42.36C123.253 41.0533 122.88 39.52 122.88 37.76V25.04C122.88 23.2533 123.253 21.72 124 20.44C124.773 19.16 125.853 18.1733 127.24 17.48C128.653 16.76 130.293 16.4 132.16 16.4C134.053 16.4 135.68 16.76 137.04 17.48C138.427 18.1733 139.507 19.16 140.28 20.44C141.053 21.72 141.44 23.2533 141.44 25.04H136.4C136.4 23.6533 136.027 22.6 135.28 21.88C134.56 21.16 133.52 20.8 132.16 20.8C130.8 20.8 129.747 21.16 129 21.88C128.253 22.6 127.88 23.64 127.88 25V37.76C127.88 39.12 128.253 40.1733 129 40.92C129.747 41.64 130.8 42 132.16 42C133.52 42 134.56 41.64 135.28 40.92C136.027 40.1733 136.4 39.12 136.4 37.76H141.44C141.44 39.4933 141.053 41.0133 140.28 42.32C139.507 43.6267 138.427 44.64 137.04 45.36C135.68 46.0533 134.053 46.4 132.16 46.4ZM155.984 46.36C154.118 46.36 152.491 46.0133 151.104 45.32C149.744 44.6 148.678 43.6 147.904 42.32C147.158 41.0133 146.784 39.48 146.784 37.72V32.28C146.784 30.52 147.158 29 147.904 27.72C148.678 26.4133 149.744 25.4133 151.104 24.72C152.491 24 154.118 23.64 155.984 23.64C157.878 23.64 159.504 24 160.864 24.72C162.224 25.4133 163.278 26.4133 164.024 27.72C164.798 29 165.184 30.5067 165.184 32.24V37.72C165.184 39.48 164.798 41.0133 164.024 42.32C163.278 43.6 162.224 44.6 160.864 45.32C159.504 46.0133 157.878 46.36 155.984 46.36ZM155.984 42C157.318 42 158.344 41.64 159.064 40.92C159.811 40.1733 160.184 39.1067 160.184 37.72V32.28C160.184 30.8667 159.811 29.8 159.064 29.08C158.344 28.36 157.318 28 155.984 28C154.678 28 153.651 28.36 152.904 29.08C152.158 29.8 151.784 30.8667 151.784 32.28V37.72C151.784 39.1067 152.158 40.1733 152.904 40.92C153.651 41.64 154.678 42 155.984 42ZM178.089 46.4C175.902 46.4 174.129 45.64 172.769 44.12C171.435 42.6 170.769 40.56 170.769 38V32.04C170.769 29.4533 171.435 27.4 172.769 25.88C174.102 24.36 175.875 23.6 178.089 23.6C179.902 23.6 181.342 24.12 182.409 25.16C183.475 26.1733 184.009 27.5733 184.009 29.36L182.889 28.2H184.049L183.889 22.96V16.8H188.889V46H184.009V41.8H182.889L184.009 40.64C184.009 42.4267 183.475 43.84 182.409 44.88C181.342 45.8933 179.902 46.4 178.089 46.4ZM179.849 42.08C181.129 42.08 182.115 41.7067 182.809 40.96C183.529 40.1867 183.889 39.12 183.889 37.76V32.24C183.889 30.88 183.529 29.8267 182.809 29.08C182.115 28.3067 181.129 27.92 179.849 27.92C178.569 27.92 177.569 28.2933 176.849 29.04C176.129 29.7867 175.769 30.8533 175.769 32.24V37.76C175.769 39.1467 176.129 40.2133 176.849 40.96C177.569 41.7067 178.569 42.08 179.849 42.08ZM203.993 46.4C202.126 46.4 200.5 46.04 199.113 45.32C197.726 44.6 196.646 43.6 195.873 42.32C195.126 41.0133 194.753 39.4933 194.753 37.76V32.24C194.753 30.5067 195.126 29 195.873 27.72C196.646 26.4133 197.726 25.4 199.113 24.68C200.5 23.96 202.126 23.6 203.993 23.6C205.833 23.6 207.433 23.96 208.793 24.68C210.18 25.4 211.246 26.4133 211.993 27.72C212.766 29 213.153 30.5067 213.153 32.24V36.2H199.593V37.76C199.593 39.3067 199.966 40.48 200.713 41.28C201.46 42.0533 202.566 42.44 204.033 42.44C205.153 42.44 206.06 42.2533 206.753 41.88C207.446 41.48 207.886 40.9067 208.073 40.16H212.993C212.62 42.0533 211.606 43.5733 209.953 44.72C208.326 45.84 206.34 46.4 203.993 46.4ZM208.313 33.4V32.2C208.313 30.68 207.953 29.52 207.233 28.72C206.513 27.8933 205.433 27.48 203.993 27.48C202.553 27.48 201.46 27.8933 200.713 28.72C199.966 29.5467 199.593 30.72 199.593 32.24V33.08L208.673 33L208.313 33.4Z" fill="white"/>
</g>
<defs>
<clipPath id="clip0_263_56">
<rect width="216" height="63" fill="white"/>
</clipPath>
</defs>
</svg>
