<svg width="100" height="100" viewBox="0 0 100 100" fill="none" xmlns="http://www.w3.org/2000/svg">
  <g clip-path="url(#clip0_46_412)">
    <path d="M83.5216 34.0602C83.5211 32.8025 83.2522 31.6912 82.7084 30.7373C82.1743 29.7994 81.3745 29.0133 80.3015 28.3917C71.4452 23.2831 62.5804 18.1902 53.7269 13.0763C51.3401 11.6978 49.0259 11.7481 46.6567 13.1464C43.1316 15.2261 25.4828 25.3415 20.2237 28.3889C18.0578 29.6432 17.0039 31.5628 17.0034 34.0578C17 44.3316 17.0034 54.605 17 64.879C17.0005 66.1091 17.2579 67.1988 17.7777 68.1383C18.3121 69.1046 19.1232 69.9123 20.2208 70.5479C25.4802 73.5953 43.1314 83.7099 46.6557 85.7902C49.0258 87.1892 51.3401 87.2392 53.7277 85.8602C62.5814 80.7461 71.4468 75.6534 80.3044 70.5448C81.402 69.9095 82.2131 69.1012 82.7475 68.1357C83.2665 67.1962 83.5244 66.1065 83.525 64.8761C83.525 64.8761 83.525 44.3342 83.5216 34.0602Z" fill="#5C8DBC"/>
    <path d="M50.3643 49.3684L17.7777 68.1384C18.3121 69.1047 19.1232 69.9124 20.2208 70.5481C25.4802 73.5954 43.1314 83.71 46.6557 85.7903C49.0259 87.1894 51.3401 87.2394 53.7277 85.8603C62.5814 80.7463 71.4468 75.6535 80.3044 70.5449C81.402 69.9096 82.2131 69.1013 82.7475 68.1358L50.3643 49.3684Z" fill="#1A4674"/>
    <path d="M40.7125 54.9283C42.6087 58.2399 46.1733 60.4735 50.2625 60.4735C54.3768 60.4735 57.9618 58.2115 59.8484 54.8645L50.3642 49.3684L40.7125 54.9283Z" fill="#1A4674"/>
    <path d="M83.5216 34.0604C83.5211 32.8027 83.2522 31.6914 82.7084 30.7375L50.3643 49.3685L82.7475 68.1359C83.2665 67.1964 83.5244 66.1067 83.525 64.8763C83.525 64.8763 83.525 44.3344 83.5216 34.0604Z" fill="#1B598E"/>
    <path d="M81.7409 50.71H79.2104V53.242H76.6794V50.71H74.1491V48.1787H76.6794V45.6472H79.2104V48.1787H81.7409V50.71ZM72.5072 50.71H69.977V53.242H67.4464V50.71H64.9159V48.1787H67.4464V45.6472H69.977V48.1787H72.5072V50.71Z" fill="white"/>
    <path d="M59.8484 54.8644C57.9618 58.2115 54.3769 60.4735 50.2625 60.4735C46.1734 60.4735 42.6087 58.2398 40.7125 54.9282C39.76 53.2665 39.2597 51.3839 39.2617 49.4683C39.2617 43.3905 44.1871 38.4634 50.2625 38.4634C54.3253 38.4634 57.8712 40.6692 59.7768 43.947L69.3921 38.408C65.5703 31.8081 58.435 27.3679 50.2625 27.3679C38.0612 27.3679 28.1705 37.2628 28.1705 49.4683C28.1705 53.4726 29.2354 57.2277 31.0964 60.4667C34.9086 67.1014 42.0642 71.569 50.2625 71.569C58.4759 71.569 65.6427 67.0835 69.4494 60.4292L59.8484 54.8644Z" fill="white"/>
  </g>
  <defs>
    <clipPath id="clip0_46_412">
      <rect width="66.6338" height="75" fill="white" transform="translate(17 12)"/>
    </clipPath>
  </defs>
</svg>
