<svg width="101" height="100" viewBox="0 0 101 100" fill="none" xmlns="http://www.w3.org/2000/svg">
  <g clip-path="url(#clip0_46_420)">
    <path d="M83.8637 34.202C83.8632 32.9533 83.5962 31.85 83.0561 30.9032C82.5256 29.9718 81.7312 29.1913 80.6655 28.5742C71.8692 23.5022 63.0644 18.4457 54.271 13.3686C51.9003 11.9999 49.6018 12.0501 47.2487 13.4384C43.7475 15.5029 26.2182 25.5458 20.9947 28.5714C18.8436 29.8169 17.7968 31.7228 17.7963 34.1997C17.7929 44.3998 17.7963 54.5998 17.7929 64.7999C17.7929 66.0212 18.0491 67.1034 18.5654 68.0359C19.0961 68.9953 19.9017 69.7972 20.9919 70.4283C26.2156 73.4538 43.7472 83.4959 47.2476 85.5612C49.6018 86.9503 51.9003 86.9999 54.2717 85.6311C63.0655 80.5536 71.8708 75.4972 80.6684 70.4252C81.7586 69.7944 82.5641 68.9919 83.0949 68.0333C83.6104 67.1005 83.8671 66.0186 83.8671 64.7971C83.8671 64.7971 83.8671 44.4024 83.8637 34.202Z" fill="#A179DC"/>
    <path d="M50.9311 49.4004L18.5654 68.0359C19.0961 68.9952 19.9017 69.7972 20.9919 70.4282C26.2156 73.4538 43.7472 83.4959 47.2476 85.5612C49.6017 86.9503 51.9003 86.9999 54.2717 85.631C63.0654 80.5536 71.8708 75.4971 80.6684 70.4251C81.7586 69.7943 82.5641 68.9919 83.0949 68.0333L50.9311 49.4004Z" fill="#280068"/>
    <path d="M83.8637 34.2021C83.8632 32.9534 83.5962 31.85 83.0561 30.9033L50.9311 49.4007L83.0949 68.0334C83.6104 67.1006 83.8666 66.0187 83.8671 64.7972C83.8671 64.7972 83.8671 44.4024 83.8637 34.2021Z" fill="#390091"/>
    <path d="M69.9869 42.4341V45.9174H73.4703V42.4341H75.212V45.9174H78.6953V47.6591H75.212V51.1422H78.6953V52.8839H75.212V56.3673H73.4703V52.8839H69.9869V56.3673H68.2452V52.8839H64.7621V51.1422H68.2452V47.6591H64.7621V45.9174H68.2452V42.4341H69.9869ZM73.4703 47.6589H69.9869V51.1422H73.4703V47.6589Z" fill="white"/>
    <path d="M51.0022 24.9402C60.0878 24.9402 68.0201 29.8744 72.2689 37.2087L72.2276 37.1382L61.5376 43.2931C59.4316 39.7273 55.5708 37.3207 51.1415 37.271L51.0019 37.2703C44.248 37.2703 38.7724 42.7458 38.7724 49.4998C38.7702 51.6285 39.3264 53.7207 40.3854 55.5673C42.4934 59.2474 46.4563 61.7295 51.0022 61.7295C55.5763 61.7295 59.5617 59.2159 61.6588 55.4965L61.6079 55.5857L72.2816 61.7691C68.0793 69.0414 60.2555 73.9603 51.2757 74.0583L51.0022 74.0598C41.8879 74.0598 33.9331 69.0951 29.6949 61.722C27.6259 58.1226 26.4421 53.9497 26.4421 49.4998C26.4421 35.936 37.4377 24.9399 51.0019 24.9399L51.0022 24.9402Z" fill="white"/>
  </g>
  <defs>
    <clipPath id="clip0_46_420">
      <rect width="66.66" height="75" fill="white" transform="translate(17.5 12)"/>
    </clipPath>
  </defs>
</svg>
