<svg width="101" height="100" viewBox="0 0 101 100" fill="none" xmlns="http://www.w3.org/2000/svg">
  <g clip-path="url(#clip0_46_431)">
    <path d="M19.1584 44.4002C19.0556 44.4002 18.9527 44.2974 19.0556 44.1945L19.7757 43.1657C19.8786 43.0628 19.9815 42.9599 20.1872 42.9599H33.1502C33.2531 42.9599 33.356 43.0628 33.2531 43.1657L32.6358 44.0916C32.5329 44.1945 32.43 44.2974 32.2243 44.2974L19.1584 44.4002ZM13.7058 47.6924C13.6029 47.6924 13.5 47.5895 13.6029 47.4867L14.323 46.4579C14.4259 46.355 14.5288 46.2521 14.7346 46.2521H31.2984C31.4012 46.2521 31.5041 46.355 31.5041 46.4579L31.1955 47.4867C31.1955 47.5895 30.9897 47.6924 30.8868 47.6924H13.7058ZM22.4506 51.0875C22.3477 51.0875 22.2449 50.9846 22.3477 50.8817L22.8621 49.9558C22.965 49.8529 23.0679 49.75 23.2737 49.75H30.4753C30.5782 49.75 30.6811 49.8529 30.6811 49.9558L30.5782 50.7788C30.5782 50.8817 30.4753 50.9846 30.3724 50.9846L22.4506 51.0875ZM60.1049 43.6801L54.035 45.2233C53.5206 45.3262 53.4177 45.4291 53.0062 44.8118C52.4918 44.1945 52.0802 43.783 51.2572 43.4743C48.9938 42.3426 46.7304 42.6513 44.6728 43.9887C42.2037 45.5319 40.9691 47.8982 40.9691 50.8817C40.9691 53.7624 43.0267 56.1286 45.9074 56.5402C48.3765 56.8488 50.4342 56.0258 52.0802 54.1739C52.3889 53.7624 52.6975 53.3509 53.1091 52.8365H46.1132C45.393 52.8365 45.1872 52.3221 45.393 51.7048C45.9074 50.5731 46.7304 48.7212 47.2449 47.7953C47.3477 47.5895 47.6564 47.178 48.1708 47.178H61.3395C61.2366 48.2068 61.2366 49.1328 61.1337 50.1616C60.7222 52.7336 59.7963 55.2027 58.1502 57.2603C55.5782 60.6554 52.1831 62.8159 47.8621 63.4332C44.2613 63.9476 40.9691 63.2274 38.0885 61.0669C35.4136 59.0093 33.8704 56.3344 33.4588 53.0422C32.9444 49.1328 34.179 45.5319 36.5453 42.4455C39.1173 39.0504 42.5123 36.89 46.7304 36.1698C50.1255 35.5525 53.4177 35.964 56.2984 37.9188C58.2531 39.1533 59.5905 40.9023 60.5165 43.0628C60.6193 43.4743 60.5165 43.5772 60.1049 43.6801Z" fill="#00ACD7"/>
    <path d="M72.0391 63.7419C68.7469 63.639 65.7634 62.7131 63.1913 60.5526C61.0309 58.7007 59.6934 56.3345 59.2819 53.5567C58.6646 49.4415 59.7963 45.8406 62.2654 42.6513C64.9403 39.1534 68.1296 37.4044 72.4506 36.5814C76.1543 35.9641 79.6523 36.2727 82.7387 38.4332C85.6193 40.388 87.3683 43.0629 87.8827 46.5608C88.5 51.4991 87.0597 55.4085 83.7675 58.8036C81.4012 61.2727 78.4177 62.7131 75.1255 63.4332C73.9938 63.639 72.965 63.639 72.0391 63.7419ZM80.6811 49.1328C80.6811 48.6184 80.6811 48.3098 80.5782 47.8983C79.9609 44.2974 76.6687 42.2398 73.1708 43.0629C69.7757 43.783 67.6152 45.9435 66.7922 49.3386C66.1749 52.1164 67.5123 54.997 70.0844 56.2316C72.0391 57.0546 74.0967 56.9518 75.9486 56.0258C78.9321 54.5855 80.4753 52.2192 80.6811 49.1328Z" fill="#00ACD7"/>
  </g>
  <defs>
    <clipPath id="clip0_46_431">
      <rect width="75" height="37.5" fill="white" transform="translate(13.5 31)"/>
    </clipPath>
  </defs>
</svg>
