<svg width="101" height="100" viewBox="0 0 101 100" fill="none" xmlns="http://www.w3.org/2000/svg">
  <g clip-path="url(#clip0_46_403)">
    <path d="M13 87.5V12.5H88V87.5H13Z" fill="#FFD600"/>
    <path d="M62.0375 68.6395C63.4792 70.9812 65.0458 73.2249 68.3646 73.2249C71.1521 73.2249 72.6146 71.8395 72.6146 69.9228C72.6146 67.6291 71.1021 66.8145 68.0354 65.4791L66.3542 64.7624C61.5021 62.7041 58.275 60.1249 58.275 54.677C58.275 49.6562 62.1188 45.8353 68.125 45.8353C72.4021 45.8353 75.475 47.3166 77.6917 51.1958L72.4542 54.5437C71.3021 52.4853 70.0563 51.6749 68.125 51.6749C66.1542 51.6749 64.9063 52.9187 64.9063 54.5437C64.9063 56.552 66.1563 57.3645 69.0417 58.6083L70.7229 59.3249C76.4417 61.7603 79.6667 64.2478 79.6667 69.8395C79.6667 75.8645 74.9083 79.1666 68.5208 79.1666C62.2729 79.1666 58.725 76.0312 56.75 72.1499L62.0375 68.6395ZM37.9 68.8103C38.9542 70.6978 40.5563 72.1499 42.8604 72.1499C45.0646 72.1499 46.3333 71.2791 46.3333 67.8937V45.8333H53.2771V68.9603C53.2771 75.9749 49.2083 79.1666 43.2667 79.1666C37.8979 79.1666 34.0229 75.5291 32.4438 72.1499L37.9 68.8103Z" fill="#000001"/>
  </g>
  <defs>
    <clipPath id="clip0_46_403">
      <rect x="0.5" width="100" height="100" rx="5" fill="white"/>
    </clipPath>
  </defs>
</svg>
